<svg width="168" height="50" viewBox="0 0 168 50" fill="none" xmlns="http://www.w3.org/2000/svg">
    <g clip-path="url(#clip0_27699_34749)">
        <rect width="168" height="50" rx="6" fill="#A6A6A6"/>
        <rect x="1.044" y="1.011" width="165.901" height="47.978" rx="5" fill="#000"/>
        <path d="M67.462 20.817h-5.065l-1.216 3.591h-2.145l4.797-13.286h2.229l4.797 13.286h-2.182l-1.215-3.59zm-4.54-1.657h4.014l-1.979-5.828h-.055l-1.98 5.828zm18.297.406c0 3.01-1.612 4.944-4.043 4.944a3.284 3.284 0 01-3.048-1.695h-.046v4.798h-1.988V14.721h1.924v1.612h.037a3.436 3.436 0 013.084-1.713c2.459 0 4.08 1.944 4.08 4.946zm-2.044 0c0-1.962-1.014-3.251-2.56-3.251-1.52 0-2.541 1.316-2.541 3.25 0 1.952 1.022 3.26 2.54 3.26 1.547 0 2.56-1.28 2.56-3.26zm12.705 0c0 3.01-1.611 4.944-4.042 4.944a3.284 3.284 0 01-3.048-1.695h-.046v4.798h-1.989V14.721h1.925v1.612h.037A3.435 3.435 0 0187.8 14.62c2.459 0 4.08 1.944 4.08 4.946zm-2.044 0c0-1.962-1.013-3.251-2.56-3.251-1.519 0-2.54 1.316-2.54 3.25 0 1.952 1.021 3.26 2.54 3.26 1.547 0 2.56-1.28 2.56-3.26zm9.09 1.14c.147 1.318 1.427 2.183 3.177 2.183 1.676 0 2.881-.865 2.881-2.053 0-1.031-.727-1.649-2.449-2.072l-1.722-.415c-2.44-.59-3.572-1.73-3.572-3.582 0-2.292 1.998-3.867 4.833-3.867 2.809 0 4.734 1.575 4.798 3.867h-2.007c-.12-1.325-1.216-2.126-2.818-2.126s-2.698.81-2.698 1.989c0 .939.7 1.492 2.413 1.915l1.464.36c2.726.644 3.857 1.739 3.857 3.682 0 2.486-1.979 4.043-5.128 4.043-2.946 0-4.936-1.52-5.064-3.924h2.035zm12.451-8.276v2.292h1.842v1.574h-1.842v5.34c0 .83.369 1.217 1.178 1.217.219-.004.437-.02.655-.046v1.565a5.474 5.474 0 01-1.105.092c-1.961 0-2.726-.736-2.726-2.615v-5.553h-1.408v-1.574h1.408v-2.293h1.998zm2.908 7.136c0-3.048 1.795-4.963 4.594-4.963 2.809 0 4.595 1.915 4.595 4.963 0 3.056-1.777 4.963-4.595 4.963-2.817 0-4.594-1.907-4.594-4.963zm7.163 0c0-2.091-.958-3.325-2.569-3.325s-2.569 1.243-2.569 3.325c0 2.099.958 3.323 2.569 3.323s2.569-1.224 2.569-3.323zm3.666-4.844h1.896v1.648h.046a2.31 2.31 0 012.33-1.75c.229 0 .458.024.681.074v1.86a2.778 2.778 0 00-.893-.12 2.002 2.002 0 00-2.072 2.229v5.745h-1.988v-9.687zm14.121 6.841a3.886 3.886 0 01-4.171 2.966c-2.818 0-4.567-1.888-4.567-4.917 0-3.039 1.758-5.01 4.483-5.01 2.681 0 4.366 1.842 4.366 4.779v.681h-6.842v.12a2.53 2.53 0 00.684 1.96 2.515 2.515 0 001.922.784 2.195 2.195 0 002.237-1.362h1.888zm-6.721-2.89h4.843a2.344 2.344 0 00-.651-1.75 2.33 2.33 0 00-1.726-.71 2.455 2.455 0 00-2.466 2.46zM59.036 30.05h9.327v.975h-4.434v1.38c.635.294 1.275.618 1.918.973.644.354 1.295.734 1.953 1.14l-.574.896c-.678-.432-1.287-.813-1.827-1.143-.54-.33-1.03-.603-1.47-.821v5.76h-.988v-8.185h-3.905v-.975zm11.872.293h1.953v-.787h.965v.787h1.809v.896h-1.81v.763h2.281l-.046-1.174a32.423 32.423 0 01-.023-1.283h.959c0 .455.007.885.02 1.289.013.404.028.793.043 1.168h2.539v.908h-2.493c.03.421.07.806.118 1.154l.13.936c.029.091.052.185.068.28l.046.272c.162-.35.304-.709.425-1.075.126-.378.241-.784.345-1.216l.879.401a12.17 12.17 0 01-1.258 3.223 4.635 4.635 0 00.212.459c.241.478.433.718.575.718.095 0 .207-.504.333-1.51l.844.447c-.241 1.398-.597 2.097-1.068 2.096-.357 0-.76-.314-1.212-.942a2.677 2.677 0 01-.235-.448 6.4 6.4 0 01-1.753 1.505l-.545-.786a5.24 5.24 0 001.86-1.753 78.915 78.915 0 01-.209-.697c-.07-.24-.13-.489-.18-.75a15.756 15.756 0 01-.328-2.314h-5.79v-.908h2.499v-.763h-1.953v-.896zm4.727 6.61v.862c-.253.03-.508.059-.767.086-.258.026-.52.056-.783.086v1.19h-.965v-1.069c-.364.03-.734.059-1.11.085a34.1 34.1 0 00-1.142.104l-.126-.93a35.42 35.42 0 001.223-.066c.39-.03.775-.055 1.154-.078v-.775h-1.918L71 35.66c.268-.345.501-.716.695-1.108h-1.01v-.879h1.395c.049-.108.09-.22.12-.336a4.64 4.64 0 01.115-.359l.942.168a4.308 4.308 0 00-.092.284 1.242 1.242 0 01-.097.243h2.613v.879h-2.964c-.103.208-.207.4-.313.575a20.26 20.26 0 00-.296.511h1.012v-.695h.965v.695h1.493v.81h-1.493v.671c.263-.022.525-.049.783-.077l.767-.089zm1.683-6.824l.729-.493c.44.49.849 1.005 1.224 1.546l-.741.527a11.1 11.1 0 00-.526-.754c-.201-.266-.43-.542-.686-.826zm-30.357-4.753a6.187 6.187 0 012.946-5.19 6.333 6.333 0 00-4.99-2.697c-2.098-.22-4.133 1.256-5.203 1.256-1.09 0-2.737-1.234-4.51-1.198a6.643 6.643 0 00-5.591 3.41c-2.418 4.185-.615 10.337 1.701 13.72 1.159 1.657 2.513 3.507 4.285 3.442 1.733-.072 2.38-1.106 4.474-1.106 2.073 0 2.68 1.106 4.489 1.064 1.86-.03 3.032-1.664 4.15-3.337a13.704 13.704 0 001.898-3.865 5.978 5.978 0 01-3.649-5.5zm-3.414-10.112A6.09 6.09 0 0044.94 10.9a6.197 6.197 0 00-4.01 2.075 5.795 5.795 0 00-1.43 4.202 5.123 5.123 0 004.047-1.913z" fill="#fff"/>
    </g>
    <defs>
        <clipPath id="clip0_27699_34749">
            <path fill="#fff" d="M0 0h168v50H0z"/>
        </clipPath>
    </defs>
</svg>