<svg width="168" height="50" viewBox="0 0 168 50" fill="none" xmlns="http://www.w3.org/2000/svg">
    <g clip-path="url(#clip0_27342_34379)">
        <rect width="168" height="50" rx="6" fill="#A6A6A6"/>
        <rect x="1.05" y="1.011" width="165.901" height="47.978" rx="5" fill="#000"/>
        <path d="M133.076 37.06h2.323V21.616h-2.323v15.442zm20.915-9.88l-2.664 6.696h-.08l-2.762-6.696h-2.502l4.143 9.358-2.361 5.204h2.421l6.384-14.562h-2.582.003zm-13.17 8.126c-.759 0-1.82-.377-1.82-1.311 0-1.193 1.321-1.65 2.462-1.65 1.02 0 1.501.22 2.122.517a2.807 2.807 0 01-2.761 2.444h-.003zm.281-8.464c-1.68 0-3.423.736-4.143 2.364l2.062.855c.44-.855 1.262-1.133 2.122-1.133 1.202 0 2.422.715 2.442 1.987v.16c-.421-.237-1.321-.596-2.421-.596-2.221 0-4.483 1.21-4.483 3.477 0 2.066 1.823 3.397 3.862 3.397 1.563 0 2.421-.694 2.962-1.51h.08v1.193h2.242v-5.92c0-2.74-2.06-4.272-4.723-4.272l-.002-.002zm-14.35 2.217h-3.303v-5.294h3.303c1.737 0 2.722 1.427 2.722 2.646 0 1.218-.985 2.646-2.722 2.646v.002zm-.06-7.442h-5.566v15.442h2.323v-5.85h3.243c2.574 0 5.102-1.848 5.102-4.796 0-2.948-2.53-4.796-5.102-4.796zM96.35 35.309c-1.604 0-2.946-1.335-2.946-3.165s1.344-3.203 2.946-3.203 2.827 1.352 2.827 3.203c0 1.851-1.243 3.165-2.827 3.165zm2.666-7.264h-.08c-.52-.617-1.525-1.175-2.789-1.175-2.647 0-5.07 2.308-5.07 5.274s2.426 5.235 5.07 5.235c1.264 0 2.266-.557 2.788-1.195h.081v.757c0 2.01-1.082 3.084-2.827 3.084-1.422 0-2.307-1.014-2.665-1.871l-2.026.836c.582 1.394 2.124 3.106 4.691 3.106 2.726 0 5.032-1.593 5.032-5.473V27.19h-2.205v.857-.002zm3.81 9.014h2.325V21.617h-2.325v15.442zm5.755-5.096c-.06-2.029 1.584-3.064 2.767-3.064.923 0 1.704.457 1.966 1.115l-4.73 1.95h-.003zm7.217-1.75c-.442-1.174-1.784-3.343-4.53-3.343-2.747 0-4.994 2.13-4.994 5.253 0 2.946 2.245 5.254 5.254 5.254 2.426 0 3.828-1.472 4.41-2.329l-1.805-1.195c-.6.875-1.422 1.453-2.605 1.453-1.184 0-2.026-.536-2.567-1.592l7.076-2.907-.242-.596.003.002zm-56.384-1.732v2.228h5.373c-.162 1.254-.583 2.168-1.223 2.806-.782.777-2.005 1.631-4.15 1.631-3.308 0-5.893-2.646-5.893-5.93 0-3.283 2.585-5.929 5.893-5.929 1.784 0 3.087.697 4.049 1.593l1.584-1.572c-1.345-1.273-3.129-2.249-5.633-2.249-4.53 0-8.34 3.66-8.34 8.16s3.81 8.16 8.34 8.16c2.447 0 4.29-.795 5.734-2.29 1.483-1.47 1.945-3.541 1.945-5.214 0-.516-.039-.994-.12-1.394h-7.559zM73.2 35.306c-1.605 0-2.988-1.313-2.988-3.182 0-1.87 1.383-3.184 2.988-3.184 1.604 0 2.988 1.294 2.988 3.183 0 1.89-1.384 3.183-2.988 3.183zm0-8.438c-2.929 0-5.313 2.21-5.313 5.253s2.384 5.253 5.313 5.253c2.928 0 5.313-2.228 5.313-5.253 0-3.026-2.385-5.253-5.313-5.253zm11.59 8.438c-1.604 0-2.988-1.313-2.988-3.182 0-1.87 1.384-3.184 2.989-3.184 1.604 0 2.988 1.294 2.988 3.183 0 1.89-1.384 3.183-2.988 3.183zm0-8.438c-2.928 0-5.312 2.21-5.312 5.253s2.384 5.253 5.313 5.253c2.928 0 5.313-2.228 5.313-5.253 0-3.026-2.385-5.253-5.313-5.253z" fill="#fff"/>
        <path d="M25.782 23.994l-13.25 13.959v.007a3.57 3.57 0 003.457 2.63c.66 0 1.282-.177 1.815-.487l.041-.026 14.915-8.542-6.98-7.543.002.002z" fill="#E43628"/>
        <path d="M39.186 21.617l-.013-.008-6.439-3.704-7.253 6.407 7.279 7.223 6.405-3.668a3.548 3.548 0 001.886-3.131 3.532 3.532 0 00-1.865-3.119z" fill="#F9BD00"/>
        <path d="M12.532 11.459a3.43 3.43 0 00-.122.914v24.666c0 .317.042.622.122.913l13.706-13.601-13.706-12.892z" fill="#587DBE"/>
        <path d="M25.879 24.707l6.858-6.805L17.84 9.33a3.597 3.597 0 00-1.849-.508 3.575 3.575 0 00-3.459 2.636l13.347 13.25z" fill="#30A043"/>
        <path d="M56.23 12.592a21.134 21.134 0 01-2.197 2.912l4.881-.312a21.21 21.21 0 00-1.32-1.72l.91-.407c.964 1.053 1.992 2.46 2.478 3.415l-.996.517a8.04 8.04 0 00-.497-.914c-5.65.451-6.311.482-6.777.666a6.839 6.839 0 00-.346-.989c.25-.065.486-.302.801-.666.291-.29 1.126-1.366 1.787-2.504h-3.248v-1h4.296V9.787h-3.454v-.999h3.454v-1.59h1.06v1.59h3.55v1h-3.55v1.804h4.341v.999h-5.172v.002zm13.667 1.043c-.455-.428-1.386-1.138-2.068-1.644l.575-.581c.66.462 1.623 1.138 2.099 1.546l-.606.677v.002zm-3.83.312v1.064h2.368v-1.064h-2.369zm0 1.784v.473h-.846v-2.889c-.185.14-.356.258-.53.364-.066-.16-.292-.622-.422-.805.64-.367 1.397-.88 1.883-1.366l.715.343c-.424.462-.996.958-1.537 1.376h3.93v2.504h-3.194zm5.952-6.575H65.75c.206.354.487.84.606 1.118l-.834.323h2.608c.247-.429.53-1.01.692-1.418l1.082.225c-.25.408-.518.829-.778 1.193h2.338v5.457c0 .493-.12.7-.466.829-.345.129-.91.139-1.807.139a2.494 2.494 0 00-.291-.764c.616.02 1.233.02 1.386.01.184 0 .25-.054.25-.214v-4.652h-6.473v5.65h-.952v-6.455h2.283c-.13-.323-.4-.84-.595-1.193l.715-.248H62.55v-.85h4.385c-.11-.288-.25-.621-.38-.89l.996-.258c.185.354.39.806.53 1.149h3.94v.85h-.002zm9.053 4.823h-4.21v1.654h4.21V13.98zm-1.86-3.072h3.4v.914h-3.4v1.236h2.89v3.867h-1.03v-.397h-4.21v.418h-.986v-3.89h2.296v-3.3h1.04v1.152zm3.701-2.44v.945h-7.838v1.794c0 1.686-.162 4.234-1.147 5.876a4.128 4.128 0 00-.887-.581c.92-1.536.996-3.749.996-5.308V8.465h4.135a6.465 6.465 0 00-.486-1.02l.996-.225c.26.377.486.86.63 1.247h3.604-.003zm6.501.537v1.815l.185-.214c1.233.59 2.934 1.546 3.766 2.191l-.736.914c-.692-.58-2.047-1.417-3.215-2.063v5.403h-1.071V9.005h-4.015v-1.02h9.557v1.02h-4.47zm14.312.289c-.26-.397-.812-1.01-1.277-1.45l.725-.463c.476.398 1.051 1 1.311 1.397l-.759.516zm.639 1.849c-.39 1.321-.92 2.555-1.602 3.632.261.785.606 1.247.986 1.247.226 0 .346-.463.401-1.645.205.214.53.431.78.517-.151 1.623-.455 2.083-1.267 2.083-.671 0-1.18-.473-1.56-1.278a8.246 8.246 0 01-1.451 1.427 3.333 3.333 0 00-.692-.7c.671-.461 1.256-1.063 1.766-1.762-.336-1.149-.52-2.633-.617-4.298h-3.83l.835.224c-.097.248-.216.483-.326.73h2.976v.796h-3.389c-.206.377-.421.74-.637 1.053h1.287v-.761h.941v.761h1.616l-.011.829h-1.602v.839l1.831-.15-.01.816a52.94 52.94 0 01-1.82.173v1.342h-.942V15.77l-2.708.248-.096-.904a130.6 130.6 0 002.804-.204v-.913h-1.355c-.432 0-.78.064-.877.173-.054-.204-.184-.656-.314-.893.195-.044.346-.248.53-.537.076-.109.206-.334.346-.623h-1.092v-.795h1.482c.13-.312.25-.622.356-.955h-1.992v-.795h2.479v-.774h-1.938v-.785h1.938v-.795h.965v.795h1.851v.785h-1.851v.774h2.509a84.024 84.024 0 01-.041-2.352h.996c-.011.816-.011 1.611.02 2.352h2.739v.795h-2.705a27.14 27.14 0 00.367 3.137c.434-.806.78-1.686 1.027-2.62l.9.258h-.003z" fill="#fff"/>
    </g>
    <defs>
        <clipPath id="clip0_27342_34379">
            <path fill="#fff" d="M0 0h168v50H0z"/>
        </clipPath>
    </defs>
</svg>
